<svg width="30" height="22" viewBox="0 0 30 22" fill="none" xmlns="http://www.w3.org/2000/svg">
<path fill-rule="evenodd" clip-rule="evenodd" d="M14.2074 0.534694C14.1867 0.153449 14.2333 0.0813216 14.5494 0.0246501C14.653 0.00404227 14.7773 -0.00626164 14.8188 0.00404227C14.8602 0.00919423 14.969 0.029802 15.0571 0.0504099C15.3214 0.101929 15.3991 0.225576 15.3784 0.575909L15.3628 0.874723L15.6271 0.859267C15.8654 0.843811 15.9069 0.854115 16.0053 0.982914C16.1556 1.17354 16.1504 1.47235 15.9898 1.65267C15.8965 1.76601 15.824 1.79692 15.6478 1.79692C15.5234 1.80207 15.4146 1.82783 15.4043 1.85875C15.3939 1.88966 15.4354 2.02361 15.4924 2.15756C15.5494 2.29151 15.596 2.44092 15.596 2.48728C15.596 2.53365 15.6685 2.647 15.7618 2.73973C15.9069 2.88914 15.9172 2.92005 15.8654 3.03854C15.8259 3.12204 15.804 3.1634 15.8161 3.18828C15.8294 3.21559 15.8835 3.22305 16.0001 3.24462C16.5079 3.33736 17.1504 3.58465 17.3369 3.75982L17.5286 3.94014L17.4975 4.34199C17.4457 5.02205 17.1815 5.84121 16.6737 6.86645C16.5338 7.16011 16.4302 7.41255 16.4457 7.43316C16.4665 7.44862 16.6012 7.5259 16.7462 7.59802C16.9898 7.71137 17.0209 7.75258 17.083 7.97412C17.1452 8.18019 17.1867 8.23687 17.3369 8.29869C17.7152 8.45325 17.6685 8.8448 17.2696 8.91177C16.9742 8.96329 16.9431 8.97875 16.9431 9.08694C16.9431 9.23635 16.7048 9.48879 16.5027 9.55577C16.3784 9.59698 16.311 9.65365 16.2903 9.74639C16.2837 9.77181 16.2793 9.83748 16.2768 9.93334H20.2V5.53333L25.1 5.53333V3.33333L30 3.33333V4.8H26.5V7.73333L30 7.73333V9.2L25.1 9.2V7H21.6V14.3333L25.1 14.3333V12.1333H30V13.6H26.5V16.5333H30V18H25.1V15.8H20.2V11.4H16.2986C16.3174 11.9569 16.3448 12.5046 16.3732 12.7757C16.5183 14.1256 17.0364 15.5166 17.7048 16.3615C18.1089 16.8767 18.1867 16.99 18.1867 17.1034C18.1867 17.2219 18.3887 17.4331 18.6012 17.5413C18.9949 17.7474 19.5079 18.3398 19.6633 18.7778C19.7773 19.092 19.7618 19.4372 19.6323 19.6536L19.5234 19.8288L19.6426 19.9215C19.969 20.1688 20.0001 20.2152 20.0001 20.3955C20.0001 20.5346 19.969 20.6016 19.8758 20.6582C19.6944 20.7767 19.0727 20.8746 17.9794 20.9467C16.6944 21.0395 11.9535 21.0395 11.14 20.9519C10.1659 20.8437 10.0001 20.7716 10.0001 20.447C10.0001 20.2976 10.0312 20.2461 10.2333 20.107C10.482 19.9318 10.5131 19.8597 10.3887 19.7566C10.3473 19.7206 10.2851 19.5969 10.254 19.4836C10.1089 18.9375 10.6063 18.0823 11.3473 17.6031C11.6789 17.3867 11.7411 17.3146 11.7877 17.0931C11.8032 17.0003 11.9172 16.8046 12.0416 16.6552C12.6996 15.8515 13.14 14.8674 13.368 13.6928C13.4616 13.2141 13.529 12.2604 13.5538 11.4H9.8V15.8H4.9V18H0V16.5333H3.5V13.6H0V12.1333H4.9V14.3333H8.4L8.4 7.00001H4.9V9.20001H0V7.73334H3.5V4.80001H0V3.33334H4.9V5.53334H9.8V9.93334H13.5382C13.5279 9.82232 13.5144 9.74011 13.4975 9.69487C13.4768 9.65365 13.3732 9.58153 13.2644 9.53001C13.026 9.42182 12.8758 9.26726 12.8291 9.08694C12.8032 8.9736 12.7618 8.94268 12.5856 8.91692C12.311 8.87571 12.1089 8.67993 12.1659 8.51507C12.1918 8.4481 12.2955 8.35536 12.3991 8.30384C12.5597 8.22141 12.6012 8.16474 12.6685 7.9329C12.7462 7.6753 12.7722 7.64954 12.9794 7.56711C13.1089 7.52074 13.2333 7.45377 13.2592 7.42286C13.2903 7.38679 13.1918 7.1292 12.9639 6.67067C12.4872 5.72271 12.1245 4.62019 12.1245 4.14106C12.1245 3.74436 12.4509 3.51252 13.2903 3.3116C13.8032 3.1931 13.8861 3.14673 13.7929 3.054C13.6893 2.95096 13.7255 2.81701 13.8861 2.69336C13.9794 2.62639 14.0416 2.53365 14.0416 2.46152C14.0416 2.3997 14.0882 2.22969 14.1452 2.08543C14.2022 1.94633 14.2437 1.82268 14.2333 1.82268C14.2281 1.81753 14.1141 1.81238 13.9742 1.80723C13.6219 1.79692 13.4975 1.65782 13.4975 1.28173C13.4975 0.92109 13.5908 0.833507 13.9639 0.859267L14.2229 0.874723L14.2074 0.534694Z" fill="white" fill-opacity="0.5"/>
</svg>
